<svg width="1200" height="630" viewBox="0 0 1200 630" fill="none" xmlns="http://www.w3.org/2000/svg">
  <rect width="1200" height="630" rx="44" fill="#030712"/>
  <rect x="36" y="36" width="1128" height="558" rx="32" fill="url(#bg)"/>
  <circle cx="945" cy="180" r="148" fill="#22D3EE" fill-opacity="0.16"/>
  <circle cx="905" cy="470" r="170" fill="#818CF8" fill-opacity="0.15"/>

  <rect x="170" y="180" width="164" height="164" rx="30" fill="#0F172A" stroke="#22D3EE" stroke-opacity="0.35" stroke-width="2"/>
  <rect x="192" y="202" width="120" height="120" rx="22" fill="url(#logo)"/>
  <path d="M220 224V288" stroke="#F8FAFC" stroke-width="12" stroke-linecap="round"/>
  <path d="M220 224C220 216.268 226.268 210 234 210H246C253.732 210 260 216.268 260 224V250C260 257.732 253.732 264 246 264H234C226.268 264 220 257.732 220 250V224Z" fill="#F8FAFC" fill-opacity="0.96"/>
  <path d="M232 214H246C251.523 214 256 218.477 256 224V242C256 247.523 251.523 252 246 252H232C226.477 252 222 247.523 222 242V224C222 218.477 226.477 214 232 214Z" fill="#0F172A"/>

  <text x="400" y="246" fill="#E2E8F0" font-family="Arial, Helvetica, sans-serif" font-size="32" font-weight="700" letter-spacing="1.2">NEXGEN AFFILIATES</text>
  <rect x="400" y="272" width="214" height="14" rx="7" fill="#22D3EE" fill-opacity="0.95"/>
  <rect x="400" y="300" width="320" height="14" rx="7" fill="#94A3B8" fill-opacity="0.85"/>
  <rect x="400" y="330" width="256" height="12" rx="6" fill="#64748B" fill-opacity="0.78"/>
  <rect x="400" y="358" width="188" height="16" rx="8" fill="#38BDF8" fill-opacity="0.78"/>

  <defs>
    <linearGradient id="bg" x1="92" y1="74" x2="1108" y2="584" gradientUnits="userSpaceOnUse">
      <stop stop-color="#0F172A"/>
      <stop offset="1" stop-color="#111827"/>
    </linearGradient>
    <linearGradient id="logo" x1="192" y1="202" x2="312" y2="322" gradientUnits="userSpaceOnUse">
      <stop stop-color="#22D3EE"/>
      <stop offset="1" stop-color="#818CF8"/>
    </linearGradient>
  </defs>
</svg>